<svg width="20" height="20" viewBox="0 0 20 20" fill="none" xmlns="http://www.w3.org/2000/svg">
<path d="M2.88889 0C2.12271 0 1.38791 0.304364 0.846136 0.846136C0.304364 1.38791 0 2.12271 0 2.88889V6C0 6.76618 0.304364 7.50098 0.846136 8.04275C1.38791 8.58453 2.12271 8.88889 2.88889 8.88889H6C6.76618 8.88889 7.50098 8.58453 8.04275 8.04275C8.58453 7.50098 8.88889 6.76618 8.88889 6V2.88889C8.88889 2.12271 8.58453 1.38791 8.04275 0.846136C7.50098 0.304364 6.76618 0 6 0H2.88889ZM2.88889 11.1111C2.12271 11.1111 1.38791 11.4155 0.846136 11.9572C0.304364 12.499 0 13.2338 0 14V17.1111C0 17.8773 0.304364 18.6121 0.846136 19.1539C1.38791 19.6956 2.12271 20 2.88889 20H6C6.37937 20 6.75503 19.9253 7.10553 19.7801C7.45603 19.6349 7.7745 19.4221 8.04275 19.1539C8.31101 18.8856 8.52381 18.5671 8.66899 18.2166C8.81417 17.8661 8.88889 17.4905 8.88889 17.1111V14C8.88889 13.2338 8.58453 12.499 8.04275 11.9572C7.50098 11.4155 6.76618 11.1111 6 11.1111H2.88889ZM14 0C13.2338 0 12.499 0.304364 11.9572 0.846136C11.4155 1.38791 11.1111 2.12271 11.1111 2.88889V6C11.1111 6.76618 11.4155 7.50098 11.9572 8.04275C12.499 8.58453 13.2338 8.88889 14 8.88889H17.1111C17.4905 8.88889 17.8661 8.81417 18.2166 8.66899C18.5671 8.52381 18.8856 8.31101 19.1539 8.04275C19.4221 7.7745 19.6349 7.45603 19.7801 7.10553C19.9253 6.75503 20 6.37937 20 6V2.88889C20 2.50951 19.9253 2.13386 19.7801 1.78336C19.6349 1.43286 19.4221 1.11439 19.1539 0.846136C18.8856 0.577878 18.5671 0.365084 18.2166 0.219904C17.8661 0.0747233 17.4905 0 17.1111 0H14ZM14 11.1111C13.2338 11.1111 12.499 11.4155 11.9572 11.9572C11.4155 12.499 11.1111 13.2338 11.1111 14V17.1111C11.1111 17.8773 11.4155 18.6121 11.9572 19.1539C12.499 19.6956 13.2338 20 14 20H17.1111C17.4905 20 17.8661 19.9253 18.2166 19.7801C18.5671 19.6349 18.8856 19.4221 19.1539 19.1539C19.4221 18.8856 19.6349 18.5671 19.7801 18.2166C19.9253 17.8661 20 17.4905 20 17.1111V14C20 13.6206 19.9253 13.245 19.7801 12.8945C19.6349 12.544 19.4221 12.2255 19.1539 11.9572C18.8856 11.689 18.5671 11.4762 18.2166 11.331C17.8661 11.1858 17.4905 11.1111 17.1111 11.1111H14Z" fill="#333333"/>
</svg>
