<svg width="20" height="21" viewBox="0 0 20 21" fill="none" xmlns="http://www.w3.org/2000/svg">
<path d="M16.9231 7C17.7391 7 18.5218 7.32778 19.0988 7.91122C19.6758 8.49467 20 9.28599 20 10.1111V17.8889C20 18.714 19.6758 19.5053 19.0988 20.0888C18.5218 20.6722 17.7391 21 16.9231 21H12.3077C11.4916 21 10.709 20.6722 10.132 20.0888C9.55494 19.5053 9.23077 18.714 9.23077 17.8889V10.1111C9.23077 9.28599 9.55494 8.49467 10.132 7.91122C10.709 7.32778 11.4916 7 12.3077 7H16.9231ZM7.69231 17.8889C7.69231 18.4333 7.78769 18.9529 7.95692 19.4382C7.86974 19.4424 7.78154 19.4444 7.69231 19.4444C2.86154 19.4444 0 16.2882 0 13.2222V12.4444C0 11.8256 0.243131 11.2321 0.675907 10.7945C1.10868 10.3569 1.69565 10.1111 2.30769 10.1111H7.69231V17.8889ZM13.0769 10.1111C12.8729 10.1111 12.6773 10.1931 12.533 10.3389C12.3887 10.4848 12.3077 10.6826 12.3077 10.8889C12.3077 11.0952 12.3887 11.293 12.533 11.4389C12.6773 11.5847 12.8729 11.6667 13.0769 11.6667H16.1538C16.3579 11.6667 16.5535 11.5847 16.6978 11.4389C16.842 11.293 16.9231 11.0952 16.9231 10.8889C16.9231 10.6826 16.842 10.4848 16.6978 10.3389C16.5535 10.1931 16.3579 10.1111 16.1538 10.1111H13.0769ZM7.69231 0C8.34907 0.000583295 8.99668 0.155759 9.58386 0.45324C10.171 0.75072 10.6817 1.18234 11.0753 1.71391C11.4689 2.24548 11.7347 2.86242 11.8517 3.51586C11.9687 4.1693 11.9336 4.84131 11.7492 5.47867C10.8997 5.58395 10.0959 5.92601 9.42752 6.46662C8.75918 7.00723 8.25268 7.72509 7.96462 8.54C7.87385 8.54622 7.78308 8.55556 7.69231 8.55556C6.57024 8.55556 5.49412 8.10486 4.7007 7.30262C3.90728 6.50038 3.46154 5.41231 3.46154 4.27778C3.46154 3.14324 3.90728 2.05517 4.7007 1.25293C5.49412 0.450693 6.57024 0 7.69231 0Z" fill="white"/>
</svg>
