<svg width="20" height="20" viewBox="0 0 20 20" fill="none" xmlns="http://www.w3.org/2000/svg">
<path d="M7.5 3.125C7.5 2.95924 7.56585 2.80027 7.68306 2.68306C7.80027 2.56585 7.95924 2.5 8.125 2.5H19.375C19.5408 2.5 19.6997 2.56585 19.8169 2.68306C19.9342 2.80027 20 2.95924 20 3.125C20 3.29076 19.9342 3.44973 19.8169 3.56694C19.6997 3.68415 19.5408 3.75 19.375 3.75H8.125C7.95924 3.75 7.80027 3.68415 7.68306 3.56694C7.56585 3.44973 7.5 3.29076 7.5 3.125ZM7.5 10.625C7.5 10.4592 7.56585 10.3003 7.68306 10.1831C7.80027 10.0658 7.95924 10 8.125 10H19.375C19.5408 10 19.6997 10.0658 19.8169 10.1831C19.9342 10.3003 20 10.4592 20 10.625C20 10.7908 19.9342 10.9497 19.8169 11.0669C19.6997 11.1842 19.5408 11.25 19.375 11.25H8.125C7.95924 11.25 7.80027 11.1842 7.68306 11.0669C7.56585 10.9497 7.5 10.7908 7.5 10.625ZM7.5 18.125C7.5 17.9592 7.56585 17.8003 7.68306 17.6831C7.80027 17.5658 7.95924 17.5 8.125 17.5H19.375C19.5408 17.5 19.6997 17.5658 19.8169 17.6831C19.9342 17.8003 20 17.9592 20 18.125C20 18.2908 19.9342 18.4497 19.8169 18.5669C19.6997 18.6842 19.5408 18.75 19.375 18.75H8.125C7.95924 18.75 7.80027 18.6842 7.68306 18.5669C7.56585 18.4497 7.5 18.2908 7.5 18.125ZM0 16.875C0 16.3777 0.197544 15.9008 0.549175 15.5492C0.900806 15.1975 1.37772 15 1.875 15H3.125C3.62228 15 4.09919 15.1975 4.45083 15.5492C4.80246 15.9008 5 16.3777 5 16.875V18.125C5 18.6223 4.80246 19.0992 4.45083 19.4508C4.09919 19.8025 3.62228 20 3.125 20H1.875C1.37772 20 0.900806 19.8025 0.549175 19.4508C0.197544 19.0992 0 18.6223 0 18.125V16.875ZM0 9.375C0 8.87772 0.197544 8.40081 0.549175 8.04917C0.900806 7.69754 1.37772 7.5 1.875 7.5H3.125C3.62228 7.5 4.09919 7.69754 4.45083 8.04917C4.80246 8.40081 5 8.87772 5 9.375V10.625C5 11.1223 4.80246 11.5992 4.45083 11.9508C4.09919 12.3025 3.62228 12.5 3.125 12.5H1.875C1.37772 12.5 0.900806 12.3025 0.549175 11.9508C0.197544 11.5992 0 11.1223 0 10.625V9.375ZM0 1.875C0 1.37772 0.197544 0.900806 0.549175 0.549175C0.900806 0.197544 1.37772 0 1.875 0H3.125C3.62228 0 4.09919 0.197544 4.45083 0.549175C4.80246 0.900806 5 1.37772 5 1.875V3.125C5 3.62228 4.80246 4.09919 4.45083 4.45083C4.09919 4.80246 3.62228 5 3.125 5H1.875C1.37772 5 0.900806 4.80246 0.549175 4.45083C0.197544 4.09919 0 3.62228 0 3.125V1.875Z" fill="#333333"/>
</svg>
