<svg width="22" height="20" viewBox="0 0 22 20" fill="none" xmlns="http://www.w3.org/2000/svg">
<path d="M7.27244 12.7238C8.07855 12.7236 8.86186 12.9914 9.4992 13.4849C10.1366 13.9785 10.5918 14.6699 10.7933 15.4504H20.9051C21.1322 15.45 21.3513 15.5346 21.5191 15.6876C21.6869 15.8406 21.7914 16.0509 21.8119 16.2771C21.8324 16.5033 21.7675 16.729 21.63 16.9097C21.4924 17.0904 21.2922 17.2131 21.0687 17.2535L20.9051 17.2681L10.7933 17.2699C10.5925 18.0511 10.1375 18.7433 9.50011 19.2375C8.8627 19.7318 8.07902 20 7.27244 20C6.46586 20 5.68218 19.7318 5.04477 19.2375C4.40736 18.7433 3.95242 18.0511 3.75157 17.2699L0.910521 17.2681C0.683408 17.2685 0.464368 17.1838 0.296535 17.0308C0.128703 16.8778 0.0242402 16.6675 0.00371941 16.4413C-0.0168014 16.2152 0.0481066 15.9895 0.185661 15.8088C0.323216 15.628 0.523449 15.5054 0.746929 15.4649L0.910521 15.4504H3.75157C3.9531 14.6699 4.40833 13.9785 5.04567 13.4849C5.68302 12.9914 6.46633 12.7236 7.27244 12.7238ZM7.27244 14.5415C6.79036 14.5415 6.32802 14.733 5.98714 15.0739C5.64625 15.4148 5.45475 15.8771 5.45475 16.3592C5.45475 16.8413 5.64625 17.3036 5.98714 17.6445C6.32802 17.9854 6.79036 18.1769 7.27244 18.1769C7.75452 18.1769 8.21686 17.9854 8.55774 17.6445C8.89862 17.3036 9.09013 16.8413 9.09013 16.3592C9.09013 15.8771 8.89862 15.4148 8.55774 15.0739C8.21686 14.733 7.75452 14.5415 7.27244 14.5415ZM14.5432 1.17498e-07C15.3493 -0.000204759 16.1326 0.26752 16.77 0.761077C17.4073 1.25463 17.8625 1.94603 18.0641 2.72654H20.9051C21.1322 2.72612 21.3513 2.81075 21.5191 2.96376C21.6869 3.11677 21.7914 3.32708 21.8119 3.55326C21.8324 3.77945 21.7675 4.00512 21.63 4.18584C21.4924 4.36655 21.2922 4.48922 21.0687 4.52969L20.9051 4.54423L18.0641 4.54604C17.8632 5.32722 17.4083 6.01942 16.7709 6.51367C16.1335 7.00793 15.3498 7.27617 14.5432 7.27617C13.7366 7.27617 12.9529 7.00793 12.3155 6.51367C11.6781 6.01942 11.2232 5.32722 11.0223 4.54604L0.910521 4.54423C0.683408 4.54464 0.464368 4.46001 0.296535 4.307C0.128703 4.15399 0.0242402 3.94369 0.00371941 3.7175C-0.0168014 3.49132 0.0481066 3.26565 0.185661 3.08493C0.323216 2.90421 0.523449 2.78154 0.746929 2.74108L0.910521 2.72654H11.0223C11.2239 1.94603 11.6791 1.25463 12.3164 0.761077C12.9538 0.26752 13.7371 -0.000204759 14.5432 1.17498e-07ZM14.5432 1.81769C14.0611 1.81769 13.5988 2.0092 13.2579 2.35008C12.917 2.69096 12.7255 3.1533 12.7255 3.63538C12.7255 4.11746 12.917 4.5798 13.2579 4.92068C13.5988 5.26157 14.0611 5.45307 14.5432 5.45307C15.0253 5.45307 15.4876 5.26157 15.8285 4.92068C16.1694 4.5798 16.3609 4.11746 16.3609 3.63538C16.3609 3.1533 16.1694 2.69096 15.8285 2.35008C15.4876 2.0092 15.0253 1.81769 14.5432 1.81769Z" fill="#333333"/>
</svg>
